<?xml version="1.0" encoding="UTF-8"?>
<svg xmlns="http://www.w3.org/2000/svg" width="112" height="30" viewBox="0 0 112 30" fill="none">
  <g clip-path="url(#clip0_17223_74245)">
    <path d="M63.1853 10.1111C63.1853 6.88886 63.2408 3.88886 63.4075 1.11108L54.9075 2.7222V3.49997L55.7408 3.61108C56.3519 3.66664 56.7408 3.88886 56.963 4.2222C57.1853 4.61108 57.3519 5.16664 57.463 5.99997C57.5742 7.61108 57.6853 11.2778 57.6297 17.0555C57.6297 22.7778 57.5742 26.3889 57.463 27.7778C60.5186 28.4444 62.9075 28.7222 64.6853 28.7222C68.0186 28.7222 70.6297 27.7778 72.5186 25.8333C74.4075 23.9444 75.4075 21.2778 75.4075 18C75.4075 15.3889 74.6853 13.2222 73.2408 11.5C71.7964 9.77775 69.963 8.94442 67.7964 8.94442C66.3519 8.94442 64.8519 9.33331 63.1853 10.1111ZM63.3519 27.2222C63.2408 25.4444 63.1297 20.1111 63.1297 11.3889C63.6297 11.2222 64.2964 11.1111 65.1297 11.1111C66.463 11.1111 67.5186 11.7778 68.2964 13.1666C69.0742 14.5555 69.463 16.2222 69.463 18.3333C69.463 20.9444 69.0186 23.0555 68.1297 24.8333C67.2408 26.5555 66.1297 27.4444 64.7408 27.4444C64.2964 27.3333 63.8519 27.2778 63.3519 27.2222ZM23.0186 1.66664H0.796387V2.77775L1.96305 2.88886C2.85194 3.05553 3.46305 3.38886 3.85194 3.88886C4.24083 4.44442 4.46305 5.33331 4.51861 6.55553C4.96305 12.5555 4.96305 18.1666 4.51861 23.3333C4.4075 24.5555 4.18528 25.4444 3.85194 26C3.46305 26.5555 2.85194 26.8889 1.96305 27L0.796387 27.1666V28.2778H15.1297V27.1666L13.6297 27.0555C13.2637 27.0249 12.9076 26.9205 12.583 26.7487C12.2584 26.5768 11.9719 26.341 11.7408 26.0555C11.3519 25.5 11.1297 24.6111 11.0742 23.3889C10.9075 21.1666 10.7964 18.6111 10.7964 15.7778L13.7964 15.8333C15.4075 15.8889 16.5186 17.1111 17.0742 19.5555H18.1853V10.5H17.0742C16.5186 12.8889 15.4631 14.1111 13.7964 14.1666L10.7964 14.2222C10.7964 9.2222 10.9075 5.66664 11.0742 3.49997H15.4631C18.5742 3.49997 20.6853 5.49997 21.9075 9.49997L23.2408 9.11108L23.0186 1.66664ZM20.4075 18.7778C20.4075 21.6666 21.2408 24.0555 22.8519 25.9444C24.4631 27.8333 26.8519 28.7222 29.8519 28.7222C32.8519 28.7222 35.2964 27.7778 37.0742 25.8333C38.8519 23.9444 39.6853 21.5555 39.6853 18.6666C39.6853 15.7778 38.8519 13.3889 37.2408 11.5C35.6297 9.61109 33.2408 8.7222 30.2408 8.7222C27.2408 8.7222 24.7964 9.66664 23.0186 11.6111C21.2408 13.5 20.4075 15.8889 20.4075 18.7778ZM32.7964 12.4444C33.463 14.0555 33.7408 16.1666 33.7408 18.7222C33.7408 24.6111 32.5186 27.5 30.1297 27.5C28.9075 27.5 27.963 26.6666 27.2964 25C26.6297 23.3333 26.3519 21.2222 26.3519 18.7222C26.3519 12.8889 27.5742 9.99997 29.963 9.99997C31.1853 9.94442 32.1297 10.7778 32.7964 12.4444ZM79.7408 25.9444C81.5742 27.7778 83.9075 28.7222 86.6853 28.7222C88.4075 28.7222 89.9075 28.3889 91.2408 27.6666C92.5742 27 93.6297 26.1666 94.3519 25.1666L93.7964 24.5C92.5741 25.4444 91.1853 25.8889 89.5742 25.8889C87.3519 25.8889 85.6297 25.1666 84.463 23.6666C83.2408 22.1666 82.6853 20.2778 82.7964 17.8333H94.6853C94.6853 15.1666 94.0186 13 92.6297 11.2778C91.2408 9.61108 89.2964 8.77775 86.7964 8.77775C83.6853 8.77775 81.2964 9.77775 79.5742 11.7222C77.8519 13.6666 77.0186 16.0555 77.0186 18.8889C77.0186 21.7778 77.9075 24.1111 79.7408 25.9444ZM83.8519 12C84.463 10.6666 85.2408 9.99997 86.2964 9.99997C87.963 9.99997 88.7964 12.1111 88.7964 16.3889L82.9075 16.5C82.963 14.8333 83.2408 13.3333 83.8519 12ZM109.63 9.77775C108.13 9.11108 106.241 8.7222 103.963 8.7222C101.63 8.7222 99.7964 9.33331 98.4075 10.5C97.0186 11.6666 96.2964 13.1111 96.2964 14.8333C96.2964 16.3333 96.7408 17.5 97.5742 18.3333C98.4075 19.1666 99.7408 19.8889 101.463 20.5C103.019 21.0555 104.13 21.6111 104.685 22.1111C105.241 22.6666 105.574 23.2778 105.574 24.1111C105.574 24.8889 105.296 25.6111 104.685 26.1666C104.13 26.7778 103.352 27.0555 102.352 27.0555C99.9075 27.0555 98.0742 25.2778 96.7964 21.7222L95.8519 22L96.0742 27.5555C98.0742 28.3333 100.296 28.7222 102.741 28.7222C105.296 28.7222 107.241 28.1666 108.685 27C110.13 25.8889 110.852 24.2778 110.852 22.2778C110.852 20.9444 110.519 19.8333 109.796 19C109.074 18.1666 107.907 17.4444 106.241 16.7778C104.407 16.1111 103.13 15.5 102.463 14.9444C101.796 14.3889 101.463 13.7222 101.463 12.8889C101.463 12.0555 101.685 11.3889 102.185 10.8333C102.685 10.2778 103.296 10.0555 104.074 10.0555C106.296 10.0555 107.907 11.6666 108.907 14.8333L109.852 14.5555L109.63 9.77775ZM56.1853 9.27775C55.4075 8.88886 54.5742 8.7222 53.6297 8.7222C52.6853 8.7222 51.7408 9.11108 50.6853 9.88886C49.6297 10.6666 48.8519 11.7222 48.2408 13.1666L48.2964 8.7222L39.8519 10.3889V11.1666L40.6853 11.2222C41.7408 11.3333 42.3519 12.1666 42.463 13.6666C42.7964 17.1111 42.7964 20.7778 42.463 24.6666C42.3519 26.1666 41.7408 26.9444 40.6853 27.1111L39.8519 27.2222V28.2778H51.6297V27.2222L50.1297 27.1111C49.0742 27 48.463 26.1666 48.3519 24.6666C48.0186 21.4444 47.963 18 48.2408 14.4444C48.5742 13.8889 49.2964 13.5555 50.4075 13.4444C51.5186 13.3333 52.7964 13.6666 54.1297 14.4444L56.1853 9.27775Z" fill="#000626" fill-opacity="0.9"></path>
  </g>
  <defs>
    <clipPath id="clip0_17223_74245">
      <rect width="111.111" height="30" fill="white" transform="translate(0.241211)"></rect>
    </clipPath>
  </defs>
</svg>
