<?xml version="1.0" encoding="UTF-8"?>
<svg xmlns="http://www.w3.org/2000/svg" width="118" height="48" viewBox="0 0 118 48" fill="none">
  <g clip-path="url(#clip0_17223_74235)">
    <path d="M54.2415 19.125C54.5676 19.145 54.8942 19.0951 55.1994 18.9787C55.5047 18.8623 55.7816 18.682 56.0115 18.45C56.4453 17.8976 56.6495 17.1991 56.5815 16.5V8.14502H60.3765V16.5C60.4237 17.2879 60.3022 18.0767 60.0202 18.8139C59.7383 19.5511 59.3024 20.2197 58.7415 20.775C57.4873 21.8298 55.8778 22.3663 54.2415 22.275C52.6051 22.3678 50.9951 21.8311 49.7415 20.775C49.1618 20.229 48.7063 19.5646 48.4061 18.827C48.1058 18.0893 47.9679 17.2957 48.0015 16.5V8.14502H51.7965V16.5C51.7517 17.1972 51.9773 17.8849 52.4265 18.42C52.6583 18.6642 52.9412 18.8541 53.255 18.976C53.5688 19.0979 53.9057 19.1488 54.2415 19.125Z" fill="#000626" fill-opacity="0.9"></path>
    <path d="M67.9515 22.2899C66.8551 22.2892 65.7677 22.091 64.7415 21.7049C63.7381 21.3384 62.8195 20.772 62.0415 20.0399L63.8715 17.7299C64.4098 18.2183 65.029 18.6092 65.7015 18.8849C66.4164 19.1721 67.1811 19.3149 67.9515 19.3049C68.3994 19.3293 68.8455 19.2308 69.2415 19.0199C69.3893 18.933 69.5106 18.8075 69.5925 18.6569C69.6745 18.5063 69.7138 18.3362 69.7065 18.1649C69.704 17.9807 69.6509 17.8007 69.553 17.6447C69.4551 17.4886 69.3162 17.3624 69.1515 17.2799C68.5385 16.9356 67.8829 16.6734 67.2015 16.4999L66.3465 16.2749C65.2776 16.044 64.292 15.5253 63.4965 14.7749C63.1708 14.4343 62.9166 14.0318 62.7492 13.5912C62.5817 13.1506 62.5043 12.6809 62.5215 12.2099C62.5279 11.4043 62.779 10.6196 63.2415 9.95994C63.7314 9.29289 64.3957 8.77387 65.1615 8.45994C66.0584 8.08384 67.0242 7.89989 67.9965 7.91994C69.0246 7.92205 70.0429 8.12061 70.9965 8.50494C71.9341 8.86837 72.8019 9.39105 73.5615 10.0499L71.6715 12.4349C71.1484 11.994 70.5681 11.6257 69.9465 11.3399C69.3352 11.0381 68.6633 10.8791 67.9815 10.8749C67.5446 10.8468 67.1085 10.9403 66.7215 11.1449C66.5674 11.2258 66.44 11.3496 66.3548 11.5013C66.2697 11.6531 66.2303 11.8263 66.2415 11.9999C66.2466 12.1668 66.2915 12.3301 66.3724 12.4762C66.4532 12.6223 66.5678 12.747 66.7065 12.8399C67.2007 13.1588 67.7501 13.3827 68.3265 13.4999L69.3615 13.7849C70.5554 14.0308 71.6538 14.6139 72.5265 15.4649C73.1366 16.1437 73.4687 17.0274 73.4565 17.9399C73.4712 18.7628 73.2301 19.5699 72.7665 20.2499C72.2725 20.9192 71.6027 21.4384 70.8315 21.7499C69.9195 22.1284 68.9386 22.3123 67.9515 22.2899Z" fill="#000626" fill-opacity="0.9"></path>
    <path d="M84.9313 22.02L84.0463 19.5H78.8563L77.9863 22.095H74.2363L79.3213 8.21997H83.7313L88.7413 22.02H84.9313ZM79.7413 16.62H83.0263L81.4663 11.76L79.7413 16.62Z" fill="#000626" fill-opacity="0.9"></path>
    <path d="M52.126 39.795V28.98H48.001V25.98H60.001V28.98H55.921V39.795H52.126Z" fill="#000626" fill-opacity="0.9"></path>
    <path d="M67.981 40.0649C66.6871 40.0901 65.4094 39.7745 64.276 39.1499C63.2155 38.5454 62.3393 37.664 61.741 36.5999C61.1 35.4663 60.7738 34.182 60.796 32.8799C60.781 31.8962 60.9541 30.9187 61.306 29.9999C61.6448 29.1453 62.1553 28.3693 62.806 27.7199C63.4588 27.0734 64.2339 26.5635 65.086 26.2199C66.9362 25.5152 68.9808 25.5152 70.831 26.2199C71.6829 26.5639 72.4579 27.0738 73.111 27.7199C73.762 28.3691 74.2726 29.1451 74.611 29.9999C75.0046 30.9104 75.2186 31.8883 75.241 32.8799C75.2678 34.1806 74.9467 35.4649 74.311 36.5999C73.7023 37.6624 72.8155 38.5388 71.746 39.1349C70.5963 39.775 69.2965 40.0961 67.981 40.0649ZM67.981 36.9299C68.5997 36.9435 69.2075 36.7653 69.721 36.4199C70.233 36.0599 70.6375 35.5673 70.891 34.9949C71.1918 34.3312 71.3404 33.6086 71.326 32.8799C71.3379 32.1516 71.1894 31.4295 70.891 30.7649C70.6458 30.1672 70.2411 29.6483 69.721 29.2649C69.2021 28.9236 68.5946 28.7418 67.9735 28.7418C67.3524 28.7418 66.7449 28.9236 66.226 29.2649C65.7059 29.6483 65.3011 30.1672 65.056 30.7649C64.7576 31.4295 64.6091 32.1516 64.621 32.8799C64.6066 33.6086 64.7552 34.3312 65.056 34.9949C65.3095 35.5673 65.7139 36.0599 66.226 36.4199C66.7455 36.763 67.3588 36.936 67.981 36.9149V36.9299Z" fill="#000626" fill-opacity="0.9"></path>
    <path d="M77.3564 39.7951V25.9201H82.8314C84.1027 25.8935 85.3589 26.1985 86.4764 26.8051C87.5094 27.3786 88.3654 28.2242 88.9514 29.2501C89.5398 30.3588 89.8475 31.5949 89.8475 32.8501C89.8475 34.1052 89.5398 35.3413 88.9514 36.4501C88.3654 37.4759 87.5094 38.3215 86.4764 38.8951C85.3589 39.5016 84.1027 39.8066 82.8314 39.7801L77.3564 39.7951ZM81.0914 36.7951H82.8314C83.2812 36.8127 83.7288 36.7241 84.138 36.5365C84.5472 36.3488 84.9063 36.0674 85.1864 35.7151C85.7917 34.8914 86.0985 33.8863 86.0564 32.8651C86.0985 31.8438 85.7917 30.8387 85.1864 30.0151C84.9063 29.6627 84.5472 29.3813 84.138 29.1936C83.7288 29.006 83.2812 28.9174 82.8314 28.9351H81.0914V36.7951Z" fill="#000626" fill-opacity="0.9"></path>
    <path d="M101.042 39.7949L100.172 37.1999H94.9667L94.0967 39.7949H90.3467L95.4317 25.9199H99.8417L104.927 39.7949H101.042ZM95.9267 34.3949H99.2417L97.6067 29.5349L95.9267 34.3949Z" fill="#000626" fill-opacity="0.9"></path>
    <path d="M112.247 34.7999V39.7949H108.392V34.7999L103.472 25.9199H107.762L110.327 31.4999L112.877 25.9949H117.167L112.247 34.7999Z" fill="#000626" fill-opacity="0.9"></path>
    <path d="M21.2412 45C32.8392 45 42.2412 35.598 42.2412 24C42.2412 12.402 32.8392 3 21.2412 3C9.64323 3 0.241211 12.402 0.241211 24C0.241211 35.598 9.64323 45 21.2412 45Z" fill="#000626" fill-opacity="0.9"></path>
  </g>
  <defs>
    <clipPath id="clip0_17223_74235">
      <rect width="117" height="48" fill="white" transform="translate(0.241211)"></rect>
    </clipPath>
  </defs>
</svg>
