<?xml version="1.0" encoding="UTF-8"?>
<svg xmlns="http://www.w3.org/2000/svg" width="150" height="40" viewBox="0 0 150 40" fill="none">
  <path fill-rule="evenodd" clip-rule="evenodd" d="M24.3333 27.335L27 25.818V22.9557L29 21.818V18.8487L27 17.711V14.8487L24.3333 13.3317V10.7892L21.6667 9.2479L20 10.2112V30.4555L21.6667 31.4188L24.3333 29.8775V27.335ZM20.9656 6.18805C21.3994 5.93732 21.9339 5.93732 22.3677 6.18805L26.6323 8.65289C27.0661 8.90363 27.3333 9.36702 27.3333 9.8685V11.5869L29.5876 12.8692C29.8428 13.0144 30 13.2827 30 13.573V15.9661L31.5876 16.8692C31.8428 17.0144 32 17.2827 32 17.573V23.0937C32 23.384 31.8428 23.6523 31.5876 23.7975L30 24.7006V27.0937C30 27.384 29.8428 27.6523 29.5876 27.7975L27.3333 29.0798V30.7982C27.3333 31.2996 27.0661 31.763 26.6323 32.0138L22.3677 34.4786C21.9339 34.7294 21.3994 34.7294 20.9656 34.4786L17.9992 32.7641C17.3808 32.4067 17 31.7467 17 31.0325V9.63418C17 8.91999 17.3808 8.25999 17.9992 7.9026L20.9656 6.18805Z" fill="#174BE6"></path>
  <path d="M9.63226 6.18805C10.0661 5.93732 10.6006 5.93732 11.0344 6.18805L14.0008 7.9026C14.6192 8.25999 15 8.91998 15 9.63417V31.0325C15 31.7467 14.6192 32.4067 14.0008 32.7641L11.0344 34.4786C10.6006 34.7294 10.0661 34.7294 9.63226 34.4786L5.36774 32.0138C4.93392 31.763 4.66667 31.2996 4.66667 30.7982V29.0798L2.41239 27.7975C2.15721 27.6523 2 27.384 2 27.0937V24.7006L0.412394 23.7975C0.157206 23.6523 0 23.384 0 23.0937V17.573C0 17.2827 0.157206 17.0144 0.412394 16.8692L2 15.9661V13.573C2 13.2827 2.15721 13.0144 2.41239 12.8692L4.66667 11.5869V9.8685C4.66667 9.36702 4.93392 8.90363 5.36774 8.65289L9.63226 6.18805Z" fill="#174BE6"></path>
  <path d="M41.152 17V5.08H46.176C46.9653 5.08 47.6373 5.21867 48.192 5.496C48.7573 5.76267 49.1893 6.14667 49.488 6.648C49.7973 7.13867 49.952 7.736 49.952 8.44C49.952 8.984 49.8027 9.496 49.504 9.976C49.216 10.4453 48.752 10.8347 48.112 11.144V10.136C48.6987 10.36 49.1627 10.6373 49.504 10.968C49.8453 11.2987 50.0853 11.6667 50.224 12.072C50.3627 12.4773 50.432 12.904 50.432 13.352C50.432 14.4933 50.0533 15.3893 49.296 16.04C48.5493 16.68 47.5093 17 46.176 17H41.152ZM43.328 15.08H46.4C46.9653 15.08 47.4133 14.9253 47.744 14.616C48.0853 14.296 48.256 13.8747 48.256 13.352C48.256 12.8293 48.0853 12.408 47.744 12.088C47.4133 11.768 46.9653 11.608 46.4 11.608H43.328V15.08ZM43.328 9.704H46.288C46.736 9.704 47.0933 9.576 47.36 9.32C47.6267 9.05333 47.76 8.712 47.76 8.296C47.76 7.88 47.6267 7.54933 47.36 7.304C47.0933 7.05867 46.736 6.936 46.288 6.936H43.328V9.704ZM52.0385 17V8.296H54.0065V10.232L53.8465 9.944C54.0492 9.29333 54.3638 8.84 54.7905 8.584C55.2278 8.328 55.7505 8.2 56.3585 8.2H56.8705V10.056H56.1185C55.5212 10.056 55.0412 10.2427 54.6785 10.616C54.3158 10.9787 54.1345 11.4907 54.1345 12.152V17H52.0385ZM60.6629 17.192C60.0549 17.192 59.5269 17.0907 59.0789 16.888C58.6309 16.6853 58.2842 16.3973 58.0389 16.024C57.7935 15.64 57.6709 15.1973 57.6709 14.696C57.6709 14.216 57.7775 13.7893 57.9909 13.416C58.2042 13.032 58.5349 12.712 58.9829 12.456C59.4309 12.2 59.9962 12.0187 60.6789 11.912L63.5269 11.448V13.048L61.0789 13.464C60.6629 13.5387 60.3535 13.672 60.1509 13.864C59.9482 14.056 59.8469 14.3067 59.8469 14.616C59.8469 14.9147 59.9589 15.1547 60.1829 15.336C60.4175 15.5067 60.7055 15.592 61.0469 15.592C61.4842 15.592 61.8682 15.5013 62.1989 15.32C62.5402 15.128 62.8015 14.8667 62.9829 14.536C63.1749 14.2053 63.2709 13.8427 63.2709 13.448V11.208C63.2709 10.8347 63.1215 10.5253 62.8229 10.28C62.5349 10.024 62.1509 9.896 61.6709 9.896C61.2229 9.896 60.8229 10.0187 60.4709 10.264C60.1295 10.4987 59.8789 10.8133 59.7189 11.208L58.0069 10.376C58.1775 9.91733 58.4442 9.52267 58.8069 9.192C59.1802 8.85067 59.6175 8.584 60.1189 8.392C60.6202 8.2 61.1642 8.104 61.7509 8.104C62.4655 8.104 63.0949 8.23733 63.6389 8.504C64.1829 8.76 64.6042 9.12267 64.9029 9.592C65.2122 10.0507 65.3669 10.5893 65.3669 11.208V17H63.3829V15.512L63.8309 15.48C63.6069 15.8533 63.3402 16.168 63.0309 16.424C62.7215 16.6693 62.3695 16.8613 61.9749 17C61.5802 17.128 61.1429 17.192 60.6629 17.192ZM67.3041 17V8.296H69.4001V17H67.3041ZM67.3041 7.32V5.08H69.4001V7.32H67.3041ZM71.3354 17V8.296H73.3034V10.008L73.1434 9.704C73.346 9.18133 73.6767 8.78667 74.1354 8.52C74.6047 8.24267 75.1487 8.104 75.7674 8.104C76.4074 8.104 76.9727 8.24267 77.4634 8.52C77.9647 8.79733 78.354 9.18667 78.6314 9.688C78.9087 10.1787 79.0474 10.7493 79.0474 11.4V17H76.9514V11.896C76.9514 11.512 76.8767 11.1813 76.7274 10.904C76.578 10.6267 76.37 10.4133 76.1034 10.264C75.8474 10.104 75.5434 10.024 75.1914 10.024C74.85 10.024 74.546 10.104 74.2794 10.264C74.0127 10.4133 73.8047 10.6267 73.6554 10.904C73.506 11.1813 73.4314 11.512 73.4314 11.896V17H71.3354ZM101.139 17V7H98.051V5.08H106.371V7H103.331V17H101.139ZM110.526 17.192C109.63 17.192 108.846 16.9893 108.174 16.584C107.502 16.1787 106.979 15.6293 106.606 14.936C106.233 14.2427 106.046 13.4747 106.046 12.632C106.046 11.7573 106.233 10.984 106.606 10.312C106.99 9.62933 107.507 9.09067 108.158 8.696C108.819 8.30133 109.555 8.104 110.366 8.104C111.049 8.104 111.646 8.216 112.158 8.44C112.681 8.664 113.123 8.97333 113.486 9.368C113.849 9.76267 114.126 10.216 114.318 10.728C114.51 11.2293 114.606 11.7733 114.606 12.36C114.606 12.5093 114.595 12.664 114.574 12.824C114.563 12.984 114.537 13.1227 114.494 13.24H107.774V11.64H113.31L112.318 12.392C112.414 11.9013 112.387 11.464 112.238 11.08C112.099 10.696 111.865 10.392 111.534 10.168C111.214 9.944 110.825 9.832 110.366 9.832C109.929 9.832 109.539 9.944 109.198 10.168C108.857 10.3813 108.595 10.7013 108.414 11.128C108.243 11.544 108.179 12.0507 108.222 12.648C108.179 13.1813 108.249 13.656 108.43 14.072C108.622 14.4773 108.899 14.792 109.262 15.016C109.635 15.24 110.062 15.352 110.542 15.352C111.022 15.352 111.427 15.2507 111.758 15.048C112.099 14.8453 112.366 14.5733 112.558 14.232L114.254 15.064C114.083 15.48 113.817 15.848 113.454 16.168C113.091 16.488 112.659 16.7387 112.158 16.92C111.667 17.1013 111.123 17.192 110.526 17.192ZM119.507 17.192C118.579 17.192 117.768 16.9733 117.075 16.536C116.392 16.088 115.923 15.4853 115.667 14.728L117.235 13.976C117.459 14.4667 117.768 14.8507 118.163 15.128C118.568 15.4053 119.016 15.544 119.507 15.544C119.891 15.544 120.195 15.4587 120.419 15.288C120.643 15.1173 120.755 14.8933 120.755 14.616C120.755 14.4453 120.707 14.3067 120.611 14.2C120.525 14.0827 120.403 13.9867 120.243 13.912C120.093 13.8267 119.928 13.7573 119.747 13.704L118.323 13.304C117.587 13.0907 117.027 12.7653 116.643 12.328C116.269 11.8907 116.083 11.3733 116.083 10.776C116.083 10.2427 116.216 9.77867 116.483 9.384C116.76 8.97867 117.139 8.664 117.619 8.44C118.109 8.216 118.669 8.104 119.299 8.104C120.12 8.104 120.845 8.30133 121.475 8.696C122.104 9.09067 122.552 9.64533 122.819 10.36L121.219 11.112C121.069 10.7173 120.819 10.4027 120.467 10.168C120.115 9.93333 119.72 9.816 119.283 9.816C118.931 9.816 118.653 9.896 118.451 10.056C118.248 10.216 118.147 10.424 118.147 10.68C118.147 10.84 118.189 10.9787 118.275 11.096C118.36 11.2133 118.477 11.3093 118.627 11.384C118.787 11.4587 118.968 11.528 119.171 11.592L120.563 12.008C121.277 12.2213 121.827 12.5413 122.211 12.968C122.605 13.3947 122.803 13.9173 122.803 14.536C122.803 15.0587 122.664 15.5227 122.387 15.928C122.109 16.3227 121.725 16.632 121.235 16.856C120.744 17.08 120.168 17.192 119.507 17.192ZM128.382 17.096C127.4 17.096 126.638 16.8293 126.094 16.296C125.56 15.752 125.294 14.9893 125.294 14.008V10.168H123.79V8.296H123.95C124.376 8.296 124.707 8.184 124.942 7.96C125.176 7.736 125.294 7.41067 125.294 6.984V6.312H127.39V8.296H129.39V10.168H127.39V13.896C127.39 14.184 127.438 14.4293 127.534 14.632C127.64 14.8347 127.8 14.9893 128.014 15.096C128.238 15.2027 128.52 15.256 128.862 15.256C128.936 15.256 129.022 15.2507 129.118 15.24C129.224 15.2293 129.326 15.2187 129.422 15.208V17C129.272 17.0213 129.102 17.0427 128.91 17.064C128.718 17.0853 128.542 17.096 128.382 17.096ZM132.687 12.232V6.184H130.815V5.08H135.759V6.184H133.919V12.232H132.687ZM136.623 12.232V5.08H137.775L140.463 8.76H139.887L142.527 5.08H143.695V12.232H142.463V6.504L142.943 6.632L140.223 10.28H140.079L137.439 6.632L137.855 6.504V12.232H136.623Z" fill="#000626" fill-opacity="0.9"></path>
  <path d="M80.9958 17V5.08H83.1718V17H80.9958ZM91.3365 17.192C90.4618 17.192 89.6458 17.0373 88.8885 16.728C88.1312 16.4187 87.4698 15.9867 86.9045 15.432C86.3392 14.8773 85.8965 14.2267 85.5765 13.48C85.2672 12.7227 85.1125 11.9067 85.1125 11.032C85.1125 10.1467 85.2672 9.33067 85.5765 8.584C85.8858 7.83733 86.3232 7.18667 86.8885 6.632C87.4538 6.07733 88.1152 5.65067 88.8725 5.352C89.6298 5.04267 90.4512 4.888 91.3365 4.888C92.2218 4.888 93.0432 5.04267 93.8005 5.352C94.5578 5.66133 95.2192 6.09333 95.7845 6.648C96.3498 7.192 96.7872 7.83733 97.0965 8.584C97.4165 9.33067 97.5765 10.1467 97.5765 11.032C97.5765 11.9067 97.4165 12.7227 97.0965 13.48C96.7765 14.2267 96.3338 14.8773 95.7685 15.432C95.2032 15.9867 94.5418 16.4187 93.7845 16.728C93.0378 17.0373 92.2218 17.192 91.3365 17.192ZM91.3365 15.208C91.9232 15.208 92.4618 15.1067 92.9525 14.904C93.4432 14.6907 93.8698 14.3973 94.2325 14.024C94.6058 13.6507 94.8885 13.208 95.0805 12.696C95.2832 12.184 95.3845 11.6293 95.3845 11.032C95.3845 10.4347 95.2832 9.88533 95.0805 9.384C94.8885 8.872 94.6058 8.42933 94.2325 8.056C93.8698 7.672 93.4432 7.37867 92.9525 7.176C92.4618 6.97333 91.9232 6.872 91.3365 6.872C90.7605 6.872 90.2272 6.97333 89.7365 7.176C89.2458 7.37867 88.8138 7.672 88.4405 8.056C88.0778 8.42933 87.7952 8.872 87.5925 9.384C87.3898 9.88533 87.2885 10.4347 87.2885 11.032C87.2885 11.6293 87.3898 12.184 87.5925 12.696C87.7952 13.208 88.0778 13.6507 88.4405 14.024C88.8138 14.3973 89.2458 14.6907 89.7365 14.904C90.2272 15.1067 90.7605 15.208 91.3365 15.208ZM94.0885 18.44L90.3765 12.232H92.6485L96.4085 18.44H94.0885Z" fill="#000626" fill-opacity="0.9"></path>
  <path d="M48.0795 27H47.0227C46.9602 26.696 46.8509 26.429 46.6946 26.1989C46.5412 25.9688 46.3537 25.7756 46.1321 25.6193C45.9134 25.4602 45.6705 25.3409 45.4034 25.2614C45.1364 25.1818 44.858 25.142 44.5682 25.142C44.0398 25.142 43.5611 25.2756 43.1321 25.5426C42.706 25.8097 42.3665 26.2031 42.1136 26.723C41.8636 27.2429 41.7386 27.8807 41.7386 28.6364C41.7386 29.392 41.8636 30.0298 42.1136 30.5497C42.3665 31.0696 42.706 31.4631 43.1321 31.7301C43.5611 31.9972 44.0398 32.1307 44.5682 32.1307C44.858 32.1307 45.1364 32.0909 45.4034 32.0114C45.6705 31.9318 45.9134 31.8139 46.1321 31.6577C46.3537 31.4986 46.5412 31.304 46.6946 31.0739C46.8509 30.8409 46.9602 30.5739 47.0227 30.2727H48.0795C48 30.7187 47.8551 31.1179 47.6449 31.4702C47.4347 31.8224 47.1733 32.1222 46.8608 32.3693C46.5483 32.6136 46.1974 32.7997 45.8082 32.9276C45.4219 33.0554 45.0085 33.1193 44.5682 33.1193C43.8239 33.1193 43.1619 32.9375 42.5824 32.5739C42.0028 32.2102 41.5469 31.6932 41.2145 31.0227C40.8821 30.3523 40.7159 29.5568 40.7159 28.6364C40.7159 27.7159 40.8821 26.9205 41.2145 26.25C41.5469 25.5795 42.0028 25.0625 42.5824 24.6989C43.1619 24.3352 43.8239 24.1534 44.5682 24.1534C45.0085 24.1534 45.4219 24.2173 45.8082 24.3452C46.1974 24.473 46.5483 24.6605 46.8608 24.9077C47.1733 25.152 47.4347 25.4503 47.6449 25.8026C47.8551 26.152 48 26.5511 48.0795 27ZM49.6509 33V26.4545H50.6225V27.4432H50.6907C50.81 27.1193 51.0259 26.8565 51.3384 26.6548C51.6509 26.4531 52.0032 26.3523 52.3952 26.3523C52.4691 26.3523 52.5614 26.3537 52.6722 26.3565C52.783 26.3594 52.8668 26.3636 52.9237 26.3693V27.392C52.8896 27.3835 52.8114 27.3707 52.6893 27.3537C52.57 27.3338 52.4435 27.3239 52.31 27.3239C51.9918 27.3239 51.7077 27.3906 51.4577 27.5241C51.2106 27.6548 51.0146 27.8366 50.8697 28.0696C50.7276 28.2997 50.6566 28.5625 50.6566 28.858V33H49.6509ZM56.6609 33.1364C56.0302 33.1364 55.4862 32.9972 55.0288 32.7188C54.5742 32.4375 54.2234 32.0455 53.9762 31.5426C53.7319 31.0369 53.6097 30.4489 53.6097 29.7784C53.6097 29.108 53.7319 28.517 53.9762 28.0057C54.2234 27.4915 54.5671 27.0909 55.0075 26.804C55.4506 26.5142 55.9677 26.3693 56.5586 26.3693C56.8995 26.3693 57.2362 26.4261 57.5685 26.5398C57.9009 26.6534 58.2035 26.8381 58.4762 27.0938C58.7489 27.3466 58.9663 27.6818 59.1282 28.0994C59.2901 28.517 59.3711 29.0312 59.3711 29.642V30.0682H54.3256V29.1989H58.3484C58.3484 28.8295 58.2745 28.5 58.1268 28.2102C57.9819 27.9205 57.7745 27.6918 57.5046 27.5241C57.2376 27.3565 56.9222 27.2727 56.5586 27.2727C56.158 27.2727 55.8114 27.3722 55.5188 27.571C55.229 27.767 55.006 28.0227 54.8498 28.3381C54.6935 28.6534 54.6154 28.9915 54.6154 29.3523V29.9318C54.6154 30.4261 54.7006 30.8452 54.8711 31.1889C55.0444 31.5298 55.2844 31.7898 55.5913 31.9688C55.8981 32.1449 56.2546 32.233 56.6609 32.233C56.9251 32.233 57.1637 32.196 57.3768 32.1222C57.5927 32.0455 57.7788 31.9318 57.935 31.7812C58.0913 31.6278 58.212 31.4375 58.2972 31.2102L59.2688 31.483C59.1665 31.8125 58.9947 32.1023 58.7532 32.3523C58.5117 32.5994 58.2134 32.7926 57.8583 32.9318C57.5032 33.0682 57.104 33.1364 56.6609 33.1364ZM62.8271 33.1534C62.4123 33.1534 62.0359 33.0753 61.6978 32.919C61.3597 32.7599 61.0913 32.5312 60.8924 32.233C60.6935 31.9318 60.5941 31.5682 60.5941 31.142C60.5941 30.767 60.668 30.4631 60.8157 30.2301C60.9634 29.9943 61.1609 29.8097 61.408 29.6761C61.6552 29.5426 61.9279 29.4432 62.2262 29.3778C62.5273 29.3097 62.8299 29.2557 63.1339 29.2159C63.5316 29.1648 63.854 29.1264 64.1012 29.1009C64.3512 29.0724 64.533 29.0256 64.6467 28.9602C64.7631 28.8949 64.8214 28.7812 64.8214 28.6193V28.5852C64.8214 28.1648 64.7063 27.8381 64.4762 27.6051C64.2489 27.3722 63.9038 27.2557 63.4407 27.2557C62.9606 27.2557 62.5842 27.3608 62.3114 27.571C62.0387 27.7812 61.8469 28.0057 61.7362 28.2443L60.7816 27.9034C60.9521 27.5057 61.1793 27.196 61.4634 26.9744C61.7504 26.75 62.0629 26.5937 62.4009 26.5057C62.7418 26.4148 63.0771 26.3693 63.4066 26.3693C63.6168 26.3693 63.8583 26.3949 64.131 26.446C64.4066 26.4943 64.6722 26.5952 64.9279 26.7486C65.1864 26.902 65.4009 27.1335 65.5714 27.4432C65.7418 27.7528 65.8271 28.1676 65.8271 28.6875V33H64.8214V32.1136H64.7702C64.7021 32.2557 64.5884 32.4077 64.4293 32.5696C64.2702 32.7315 64.0586 32.8693 63.7944 32.983C63.5302 33.0966 63.2077 33.1534 62.8271 33.1534ZM62.9805 32.25C63.3782 32.25 63.7134 32.1719 63.9862 32.0156C64.2617 31.8594 64.4691 31.6577 64.6083 31.4105C64.7504 31.1634 64.8214 30.9034 64.8214 30.6307V29.7102C64.7788 29.7614 64.685 29.8082 64.5401 29.8509C64.3981 29.8906 64.2333 29.9261 64.0458 29.9574C63.8612 29.9858 63.6808 30.0114 63.5046 30.0341C63.3313 30.054 63.1907 30.071 63.0827 30.0852C62.8214 30.1193 62.5771 30.1747 62.3498 30.2514C62.1254 30.3253 61.9435 30.4375 61.8043 30.5881C61.668 30.7358 61.5998 30.9375 61.5998 31.1932C61.5998 31.5426 61.729 31.8068 61.9876 31.9858C62.2489 32.1619 62.5799 32.25 62.9805 32.25ZM70.5092 26.4545V27.3068H67.1172V26.4545H70.5092ZM68.1058 24.8864H69.1115V31.125C69.1115 31.4091 69.1527 31.6222 69.2351 31.7642C69.3203 31.9034 69.4283 31.9972 69.5589 32.0455C69.6925 32.0909 69.8331 32.1136 69.9808 32.1136C70.0916 32.1136 70.1825 32.108 70.2536 32.0966C70.3246 32.0824 70.3814 32.071 70.424 32.0625L70.6286 32.9659C70.5604 32.9915 70.4652 33.017 70.343 33.0426C70.2209 33.071 70.0661 33.0852 69.8786 33.0852C69.5945 33.0852 69.3161 33.0241 69.0433 32.902C68.7734 32.7798 68.549 32.5938 68.37 32.3438C68.1939 32.0938 68.1058 31.7784 68.1058 31.3977V24.8864ZM74.696 33.1364C74.0653 33.1364 73.5213 32.9972 73.0639 32.7188C72.6094 32.4375 72.2585 32.0455 72.0114 31.5426C71.767 31.0369 71.6449 30.4489 71.6449 29.7784C71.6449 29.108 71.767 28.517 72.0114 28.0057C72.2585 27.4915 72.6023 27.0909 73.0426 26.804C73.4858 26.5142 74.0028 26.3693 74.5938 26.3693C74.9347 26.3693 75.2713 26.4261 75.6037 26.5398C75.9361 26.6534 76.2386 26.8381 76.5114 27.0938C76.7841 27.3466 77.0014 27.6818 77.1634 28.0994C77.3253 28.517 77.4062 29.0312 77.4062 29.642V30.0682H72.3608V29.1989H76.3835C76.3835 28.8295 76.3097 28.5 76.1619 28.2102C76.017 27.9205 75.8097 27.6918 75.5398 27.5241C75.2727 27.3565 74.9574 27.2727 74.5938 27.2727C74.1932 27.2727 73.8466 27.3722 73.554 27.571C73.2642 27.767 73.0412 28.0227 72.8849 28.3381C72.7287 28.6534 72.6506 28.9915 72.6506 29.3523V29.9318C72.6506 30.4261 72.7358 30.8452 72.9062 31.1889C73.0795 31.5298 73.3196 31.7898 73.6264 31.9688C73.9332 32.1449 74.2898 32.233 74.696 32.233C74.9602 32.233 75.1989 32.196 75.4119 32.1222C75.6278 32.0455 75.8139 31.9318 75.9702 31.7812C76.1264 31.6278 76.2472 31.4375 76.3324 31.2102L77.304 31.483C77.2017 31.8125 77.0298 32.1023 76.7884 32.3523C76.5469 32.5994 76.2486 32.7926 75.8935 32.9318C75.5384 33.0682 75.1392 33.1364 74.696 33.1364ZM81.4077 33.1364C80.8622 33.1364 80.3807 32.9986 79.9631 32.723C79.5455 32.4446 79.2188 32.0526 78.983 31.5469C78.7472 31.0384 78.6293 30.4375 78.6293 29.7443C78.6293 29.0568 78.7472 28.4602 78.983 27.9545C79.2188 27.4489 79.5469 27.0582 79.9673 26.7827C80.3878 26.5071 80.8736 26.3693 81.4247 26.3693C81.8509 26.3693 82.1875 26.4403 82.4347 26.5824C82.6847 26.7216 82.875 26.8807 83.0057 27.0597C83.1392 27.2358 83.2429 27.3807 83.3168 27.4943H83.402V24.2727H84.4077V33H83.4361V31.9943H83.3168C83.2429 32.1136 83.1378 32.2642 83.0014 32.446C82.8651 32.625 82.6705 32.7855 82.4176 32.9276C82.1648 33.0668 81.8281 33.1364 81.4077 33.1364ZM81.544 32.233C81.9474 32.233 82.2884 32.1278 82.5668 31.9176C82.8452 31.7045 83.0568 31.4105 83.2017 31.0355C83.3466 30.6577 83.419 30.2216 83.419 29.7273C83.419 29.2386 83.348 28.8111 83.206 28.4446C83.0639 28.0753 82.8537 27.7884 82.5753 27.5838C82.2969 27.3764 81.9531 27.2727 81.544 27.2727C81.1179 27.2727 80.7628 27.3821 80.4787 27.6009C80.1974 27.8168 79.9858 28.1108 79.8438 28.483C79.7045 28.8523 79.6349 29.267 79.6349 29.7273C79.6349 30.1932 79.706 30.6165 79.848 30.9972C79.9929 31.375 80.206 31.6761 80.4872 31.9006C80.7713 32.1222 81.1236 32.233 81.544 32.233ZM89.9006 33V24.2727H90.9062V27.4943H90.9915C91.0653 27.3807 91.1676 27.2358 91.2983 27.0597C91.4318 26.8807 91.6222 26.7216 91.8693 26.5824C92.1193 26.4403 92.4574 26.3693 92.8835 26.3693C93.4347 26.3693 93.9205 26.5071 94.3409 26.7827C94.7614 27.0582 95.0895 27.4489 95.3253 27.9545C95.5611 28.4602 95.679 29.0568 95.679 29.7443C95.679 30.4375 95.5611 31.0384 95.3253 31.5469C95.0895 32.0526 94.7628 32.4446 94.3452 32.723C93.9276 32.9986 93.446 33.1364 92.9006 33.1364C92.4801 33.1364 92.1435 33.0668 91.8906 32.9276C91.6378 32.7855 91.4432 32.625 91.3068 32.446C91.1705 32.2642 91.0653 32.1136 90.9915 31.9943H90.8722V33H89.9006ZM90.8892 29.7273C90.8892 30.2216 90.9616 30.6577 91.1065 31.0355C91.2514 31.4105 91.4631 31.7045 91.7415 31.9176C92.0199 32.1278 92.3608 32.233 92.7642 32.233C93.1847 32.233 93.5355 32.1222 93.8168 31.9006C94.1009 31.6761 94.3139 31.375 94.456 30.9972C94.6009 30.6165 94.6733 30.1932 94.6733 29.7273C94.6733 29.267 94.6023 28.8523 94.4602 28.483C94.321 28.1108 94.1094 27.8168 93.8253 27.6009C93.544 27.3821 93.1903 27.2727 92.7642 27.2727C92.3551 27.2727 92.0114 27.3764 91.733 27.5838C91.4545 27.7884 91.2443 28.0753 91.1023 28.4446C90.9602 28.8111 90.8892 29.2386 90.8892 29.7273ZM97.6307 35.4545C97.4602 35.4545 97.3082 35.4403 97.1747 35.4119C97.0412 35.3864 96.9489 35.3608 96.8977 35.3352L97.1534 34.4489C97.3977 34.5114 97.6136 34.5341 97.8011 34.517C97.9886 34.5 98.1548 34.4162 98.2997 34.2656C98.4474 34.1179 98.5824 33.8778 98.7045 33.5455L98.892 33.0341L96.4716 26.4545H97.5625L99.3693 31.6705H99.4375L101.244 26.4545H102.335L99.5568 33.9545C99.4318 34.2926 99.277 34.5724 99.0923 34.794C98.9077 35.0185 98.6932 35.1847 98.4489 35.2926C98.2074 35.4006 97.9347 35.4545 97.6307 35.4545ZM109.782 33.1364C109.151 33.1364 108.607 32.9972 108.15 32.7188C107.695 32.4375 107.344 32.0455 107.097 31.5426C106.853 31.0369 106.731 30.4489 106.731 29.7784C106.731 29.108 106.853 28.517 107.097 28.0057C107.344 27.4915 107.688 27.0909 108.129 26.804C108.572 26.5142 109.089 26.3693 109.68 26.3693C110.021 26.3693 110.357 26.4261 110.69 26.5398C111.022 26.6534 111.325 26.8381 111.597 27.0938C111.87 27.3466 112.087 27.6818 112.249 28.0994C112.411 28.517 112.492 29.0312 112.492 29.642V30.0682H107.447V29.1989H111.469C111.469 28.8295 111.396 28.5 111.248 28.2102C111.103 27.9205 110.896 27.6918 110.626 27.5241C110.359 27.3565 110.043 27.2727 109.68 27.2727C109.279 27.2727 108.933 27.3722 108.64 27.571C108.35 27.767 108.127 28.0227 107.971 28.3381C107.815 28.6534 107.737 28.9915 107.737 29.3523V29.9318C107.737 30.4261 107.822 30.8452 107.992 31.1889C108.165 31.5298 108.406 31.7898 108.712 31.9688C109.019 32.1449 109.376 32.233 109.782 32.233C110.046 32.233 110.285 32.196 110.498 32.1222C110.714 32.0455 110.9 31.9318 111.056 31.7812C111.212 31.6278 111.333 31.4375 111.418 31.2102L112.39 31.483C112.288 31.8125 112.116 32.1023 111.874 32.3523C111.633 32.5994 111.335 32.7926 110.979 32.9318C110.624 33.0682 110.225 33.1364 109.782 33.1364ZM114.596 26.4545L116.164 29.1307L117.733 26.4545H118.892L116.778 29.7273L118.892 33H117.733L116.164 30.4602L114.596 33H113.437L115.517 29.7273L113.437 26.4545H114.596ZM120.327 35.4545V26.4545H121.298V27.4943H121.418C121.491 27.3807 121.594 27.2358 121.724 27.0597C121.858 26.8807 122.048 26.7216 122.295 26.5824C122.545 26.4403 122.884 26.3693 123.31 26.3693C123.861 26.3693 124.347 26.5071 124.767 26.7827C125.188 27.0582 125.516 27.4489 125.751 27.9545C125.987 28.4602 126.105 29.0568 126.105 29.7443C126.105 30.4375 125.987 31.0384 125.751 31.5469C125.516 32.0526 125.189 32.4446 124.771 32.723C124.354 32.9986 123.872 33.1364 123.327 33.1364C122.906 33.1364 122.57 33.0668 122.317 32.9276C122.064 32.7855 121.869 32.625 121.733 32.446C121.597 32.2642 121.491 32.1136 121.418 31.9943H121.332V35.4545H120.327ZM121.315 29.7273C121.315 30.2216 121.388 30.6577 121.533 31.0355C121.678 31.4105 121.889 31.7045 122.168 31.9176C122.446 32.1278 122.787 32.233 123.19 32.233C123.611 32.233 123.962 32.1222 124.243 31.9006C124.527 31.6761 124.74 31.375 124.882 30.9972C125.027 30.6165 125.099 30.1932 125.099 29.7273C125.099 29.267 125.028 28.8523 124.886 28.483C124.747 28.1108 124.536 27.8168 124.251 27.6009C123.97 27.3821 123.616 27.2727 123.19 27.2727C122.781 27.2727 122.438 27.3764 122.159 27.5838C121.881 27.7884 121.67 28.0753 121.528 28.4446C121.386 28.8111 121.315 29.2386 121.315 29.7273ZM130.384 33.1364C129.753 33.1364 129.209 32.9972 128.751 32.7188C128.297 32.4375 127.946 32.0455 127.699 31.5426C127.455 31.0369 127.332 30.4489 127.332 29.7784C127.332 29.108 127.455 28.517 127.699 28.0057C127.946 27.4915 128.29 27.0909 128.73 26.804C129.173 26.5142 129.69 26.3693 130.281 26.3693C130.622 26.3693 130.959 26.4261 131.291 26.5398C131.624 26.6534 131.926 26.8381 132.199 27.0938C132.472 27.3466 132.689 27.6818 132.851 28.0994C133.013 28.517 133.094 29.0312 133.094 29.642V30.0682H128.048V29.1989H132.071C132.071 28.8295 131.997 28.5 131.849 28.2102C131.705 27.9205 131.497 27.6918 131.227 27.5241C130.96 27.3565 130.645 27.2727 130.281 27.2727C129.881 27.2727 129.534 27.3722 129.241 27.571C128.952 27.767 128.729 28.0227 128.572 28.3381C128.416 28.6534 128.338 28.9915 128.338 29.3523V29.9318C128.338 30.4261 128.423 30.8452 128.594 31.1889C128.767 31.5298 129.007 31.7898 129.314 31.9688C129.621 32.1449 129.977 32.233 130.384 32.233C130.648 32.233 130.886 32.196 131.099 32.1222C131.315 32.0455 131.501 31.9318 131.658 31.7812C131.814 31.6278 131.935 31.4375 132.02 31.2102L132.991 31.483C132.889 31.8125 132.717 32.1023 132.476 32.3523C132.234 32.5994 131.936 32.7926 131.581 32.9318C131.226 33.0682 130.827 33.1364 130.384 33.1364ZM134.624 33V26.4545H135.595V27.4432H135.663C135.783 27.1193 135.999 26.8565 136.311 26.6548C136.624 26.4531 136.976 26.3523 137.368 26.3523C137.442 26.3523 137.534 26.3537 137.645 26.3565C137.756 26.3594 137.839 26.3636 137.896 26.3693V27.392C137.862 27.3835 137.784 27.3707 137.662 27.3537C137.543 27.3338 137.416 27.3239 137.283 27.3239C136.964 27.3239 136.68 27.3906 136.43 27.5241C136.183 27.6548 135.987 27.8366 135.842 28.0696C135.7 28.2997 135.629 28.5625 135.629 28.858V33H134.624ZM142.345 26.4545V27.3068H138.953V26.4545H142.345ZM139.942 24.8864H140.947V31.125C140.947 31.4091 140.989 31.6222 141.071 31.7642C141.156 31.9034 141.264 31.9972 141.395 32.0455C141.528 32.0909 141.669 32.1136 141.817 32.1136C141.928 32.1136 142.018 32.108 142.089 32.0966C142.161 32.0824 142.217 32.071 142.26 32.0625L142.464 32.9659C142.396 32.9915 142.301 33.017 142.179 33.0426C142.057 33.071 141.902 33.0852 141.714 33.0852C141.43 33.0852 141.152 33.0241 140.879 32.902C140.609 32.7798 140.385 32.5938 140.206 32.3438C140.03 32.0938 139.942 31.7784 139.942 31.3977V24.8864ZM148.377 27.9205L147.474 28.1761C147.417 28.0256 147.333 27.8793 147.222 27.7372C147.114 27.5923 146.967 27.473 146.779 27.3793C146.592 27.2855 146.352 27.2386 146.059 27.2386C145.658 27.2386 145.325 27.331 145.058 27.5156C144.793 27.6974 144.661 27.929 144.661 28.2102C144.661 28.4602 144.752 28.6577 144.934 28.8026C145.116 28.9474 145.4 29.0682 145.786 29.1648L146.758 29.4034C147.343 29.5455 147.779 29.7628 148.066 30.0554C148.353 30.3452 148.496 30.7187 148.496 31.1761C148.496 31.5511 148.388 31.8864 148.173 32.1818C147.96 32.4773 147.661 32.7102 147.278 32.8807C146.894 33.0511 146.448 33.1364 145.94 33.1364C145.272 33.1364 144.719 32.9915 144.282 32.7017C143.844 32.4119 143.567 31.9886 143.451 31.4318L144.406 31.1932C144.496 31.5455 144.668 31.8097 144.921 31.9858C145.177 32.1619 145.511 32.25 145.923 32.25C146.391 32.25 146.763 32.1506 147.039 31.9517C147.317 31.75 147.457 31.5085 147.457 31.2273C147.457 31 147.377 30.8097 147.218 30.6562C147.059 30.5 146.815 30.3835 146.485 30.3068L145.394 30.0511C144.795 29.9091 144.354 29.6889 144.073 29.3906C143.795 29.0895 143.656 28.7131 143.656 28.2614C143.656 27.892 143.759 27.5653 143.967 27.2812C144.177 26.9972 144.462 26.7741 144.823 26.6122C145.187 26.4503 145.599 26.3693 146.059 26.3693C146.707 26.3693 147.215 26.5114 147.585 26.7955C147.957 27.0795 148.221 27.4545 148.377 27.9205Z" fill="#000933" fill-opacity="0.65"></path>
</svg>
