<?xml version="1.0" encoding="UTF-8"?>
<svg xmlns="http://www.w3.org/2000/svg" width="72" height="34" viewBox="0 0 72 34" fill="none">
  <path d="M24.0535 22.8329V6.59154C24.0535 0.47919 31.954 -2.4555 36.134 4.64773C36.4377 5.16026 43.0208 16.5004 43.0208 16.5004V6.59154C43.0208 0.47919 50.9175 -2.4555 55.0974 4.64773C55.4011 5.16026 61.9843 16.5004 61.9843 16.5004V0.623457H65.925V27.2786C65.9349 27.4588 65.8837 27.6371 65.7797 27.7845C65.6756 27.932 65.5248 28.04 65.3517 28.0911C64.9341 28.205 64.4937 27.9468 64.171 27.4001C64.1065 27.2938 60.7542 21.5307 57.5348 15.9613L51.6274 5.79048C50.7998 4.38578 49.5659 4.13901 48.6889 4.37818C48.1837 4.51956 47.7397 4.82492 47.427 5.24623C47.1143 5.66754 46.9506 6.18086 46.9615 6.70543V27.2786C46.9708 27.4587 46.9193 27.6366 46.8154 27.7839C46.7114 27.9313 46.561 28.0394 46.3883 28.0911C45.9669 28.205 45.5265 27.9468 45.2076 27.4001C45.1506 27.3052 42.0413 21.9483 39.0383 16.7699C35.2114 10.1716 32.6981 5.84363 32.6602 5.77909C31.8325 4.37059 30.5949 4.12762 29.7103 4.3668C29.2047 4.50805 28.7603 4.81326 28.4469 5.2345C28.1335 5.65574 27.969 6.16913 27.9791 6.69404V26.8344C27.962 27.1023 27.8476 27.3547 27.6574 27.5442C27.4673 27.7337 27.2144 27.8471 26.9465 27.8633H16.7225C13.8388 27.8633 11.0731 26.7177 9.03404 24.6786C6.99493 22.6395 5.84937 19.8739 5.84937 16.9901C5.84937 14.1064 6.99493 11.3408 9.03404 9.30164C11.0731 7.26253 13.8388 6.11698 16.7225 6.11698H22.0376V10.0501H16.7681C14.9275 10.0501 13.1623 10.7813 11.8608 12.0828C10.5593 13.3843 9.82809 15.1495 9.82809 16.9901C9.82809 18.8307 10.5593 20.5959 11.8608 21.8974C13.1623 23.1989 14.9275 23.9301 16.7681 23.9301H22.9677C23.1116 23.9311 23.2542 23.9034 23.3871 23.8485C23.5201 23.7936 23.6407 23.7126 23.7419 23.6103C23.8431 23.5081 23.9227 23.3866 23.9763 23.2531C24.0298 23.1196 24.0561 22.9767 24.0535 22.8329ZM71.4223 27.4077C71.4223 33.52 63.5218 36.4547 59.3419 29.3553C59.042 28.8428 52.4551 17.4988 52.4551 17.4988V27.4077C52.4551 33.52 44.5584 36.4547 40.3784 29.3553C40.0747 28.8428 33.4916 17.4988 33.4916 17.4988V26.842C33.4916 31.0827 30.9745 33.3796 27.0376 33.3796H16.7301C12.3864 33.3796 8.22055 31.654 5.14907 28.5825C2.07759 25.5111 0.352051 21.3452 0.352051 17.0015C0.352051 12.6578 2.07759 8.49196 5.14907 5.42048C8.22055 2.349 12.3864 0.623457 16.7301 0.623457H22.0452V4.55662H16.7301C15.0958 4.55662 13.4775 4.87851 11.9676 5.50393C10.4578 6.12934 9.08585 7.04603 7.93024 8.20164C6.77462 9.35726 5.85794 10.7292 5.23252 12.2391C4.60711 13.7489 4.28521 15.3672 4.28521 17.0015C4.28521 18.6358 4.60711 20.2541 5.23252 21.764C5.85794 23.2738 6.77462 24.6458 7.93024 25.8014C9.08585 26.957 10.4578 27.8737 11.9676 28.4991C13.4775 29.1245 15.0958 29.4464 16.7301 29.4464H26.9465C27.6323 29.4328 28.2863 29.1546 28.7717 28.6699C29.2571 28.1852 29.5363 27.5316 29.5508 26.8458V6.70543C29.5411 6.52572 29.5925 6.34801 29.6965 6.20119C29.8006 6.05437 29.9513 5.94708 30.1241 5.89678C30.5417 5.78288 30.9821 6.04105 31.3048 6.58774L37.6791 17.571C41.3845 23.9605 43.8181 28.1556 43.8484 28.2012C44.6799 29.6059 45.9175 29.8526 46.8021 29.6096C47.3076 29.468 47.7516 29.1619 48.0637 28.7398C48.3759 28.3176 48.5384 27.8035 48.5257 27.2786V6.70923C48.5153 6.53 48.5654 6.35249 48.668 6.20516C48.7706 6.05783 48.9197 5.94923 49.0914 5.89678C49.5052 5.78288 49.9418 6.04105 50.2607 6.58774L56.168 16.7661L62.8081 28.2125C63.4573 29.3135 64.3608 29.7046 65.1467 29.7046C65.3533 29.7046 65.5589 29.6765 65.758 29.621C66.2701 29.4833 66.721 29.1775 67.0384 28.7527C67.3558 28.3279 67.5212 27.8087 67.5081 27.2786V0.623457H71.4337L71.4223 27.4077Z" fill="#000626" fill-opacity="0.9"></path>
</svg>
