<?xml version="1.0" encoding="UTF-8"?>
<svg xmlns="http://www.w3.org/2000/svg" id="Layer_1" version="1.1" viewBox="0 0 32 28.7">
  <defs>
    <style>
      .st0, .st1 {
        fill: #174be6;
      }

      .st1 {
        fill-rule: evenodd;
      }
    </style>
  </defs>
  <path class="st1" d="M24.3,21.3l2.7-1.5v-2.9l2-1.1v-3l-2-1.1v-2.9l-2.7-1.5v-2.5l-2.7-1.5-1.7,1v20.2l1.7,1,2.7-1.5v-2.5ZM21,.2c.4-.3,1-.3,1.4,0l4.3,2.5c.4.3.7.7.7,1.2v1.7l2.3,1.3c.3.1.4.4.4.7v2.4l1.6.9c.3.1.4.4.4.7v5.5c0,.3-.2.6-.4.7l-1.6.9v2.4c0,.3-.2.6-.4.7l-2.3,1.3v1.7c0,.5-.3,1-.7,1.2l-4.3,2.5c-.4.3-1,.3-1.4,0l-3-1.7c-.6-.4-1-1-1-1.7V3.6c0-.7.4-1.4,1-1.7l3-1.7Z"></path>
  <path class="st0" d="M9.6.2c.4-.3,1-.3,1.4,0l3,1.7c.6.4,1,1,1,1.7v21.4c0,.7-.4,1.4-1,1.7l-3,1.7c-.4.3-1,.3-1.4,0l-4.3-2.5c-.4-.3-.7-.7-.7-1.2v-1.7l-2.3-1.3c-.3-.1-.4-.4-.4-.7v-2.4l-1.6-.9c-.3-.1-.4-.4-.4-.7v-5.5c0-.3.2-.6.4-.7l1.6-.9v-2.4c0-.3.2-.6.4-.7l2.3-1.3v-1.7c0-.5.3-1,.7-1.2L9.6.2Z"></path>
</svg>
