<svg width="96" height="16" viewBox="0 0 96 16" fill="none" xmlns="http://www.w3.org/2000/svg">
<path d="M7.99967 1.33325L10.0597 5.50659L14.6663 6.17992L11.333 9.42659L12.1197 14.0133L7.99967 11.8466L3.87967 14.0133L4.66634 9.42659L1.33301 6.17992L5.93967 5.50659L7.99967 1.33325Z" fill="#FEC62E"/>
<path d="M8.29858 1.18571C8.24242 1.07194 8.12655 0.999919 7.99967 0.999919C7.8728 0.999919 7.75693 1.07194 7.70077 1.18571L5.71825 5.20207L1.2848 5.85009C1.15928 5.86844 1.05505 5.95644 1.01593 6.07711C0.9768 6.19778 1.00956 6.3302 1.10043 6.41871L4.30817 9.54304L3.55114 13.9569C3.52969 14.082 3.5811 14.2084 3.68376 14.2829C3.78642 14.3575 3.92252 14.3673 4.03483 14.3083L7.99967 12.2232L11.9645 14.3083C12.0768 14.3673 12.2129 14.3575 12.3156 14.2829C12.4182 14.2084 12.4697 14.082 12.4482 13.9569L11.6912 9.54304L14.8989 6.41871C14.9898 6.3302 15.0225 6.19778 14.9834 6.07711C14.9443 5.95644 14.8401 5.86844 14.7146 5.85009L10.2811 5.20207L8.29858 1.18571Z" stroke="#8F6C1A" stroke-opacity="0.8" stroke-width="0.666667" stroke-linecap="round" stroke-linejoin="round"/>
<path d="M27.9997 1.33325L30.0597 5.50659L34.6663 6.17992L31.333 9.42659L32.1197 14.0133L27.9997 11.8466L23.8797 14.0133L24.6663 9.42659L21.333 6.17992L25.9397 5.50659L27.9997 1.33325Z" fill="#FEC62E"/>
<path d="M28.2986 1.18571C28.2424 1.07194 28.1265 0.999919 27.9997 0.999919C27.8728 0.999919 27.7569 1.07194 27.7008 1.18571L25.7183 5.20207L21.2848 5.85009C21.1593 5.86844 21.0551 5.95644 21.0159 6.07711C20.9768 6.19778 21.0096 6.3302 21.1004 6.41871L24.3082 9.54304L23.5511 13.9569C23.5297 14.082 23.5811 14.2084 23.6838 14.2829C23.7864 14.3575 23.9225 14.3673 24.0348 14.3083L27.9997 12.2232L31.9645 14.3083C32.0768 14.3673 32.2129 14.3575 32.3156 14.2829C32.4182 14.2084 32.4697 14.082 32.4482 13.9569L31.6912 9.54304L34.8989 6.41871C34.9898 6.3302 35.0225 6.19778 34.9834 6.07711C34.9443 5.95644 34.8401 5.86844 34.7146 5.85009L30.2811 5.20207L28.2986 1.18571Z" stroke="#8F6C1A" stroke-opacity="0.8" stroke-width="0.666667" stroke-linecap="round" stroke-linejoin="round"/>
<path d="M47.9997 1.33325L50.0597 5.50659L54.6663 6.17992L51.333 9.42659L52.1197 14.0133L47.9997 11.8466L43.8797 14.0133L44.6663 9.42659L41.333 6.17992L45.9397 5.50659L47.9997 1.33325Z" fill="#FEC62E"/>
<path d="M48.2986 1.18571C48.2424 1.07194 48.1265 0.999919 47.9997 0.999919C47.8728 0.999919 47.7569 1.07194 47.7008 1.18571L45.7183 5.20207L41.2848 5.85009C41.1593 5.86844 41.0551 5.95644 41.0159 6.07711C40.9768 6.19778 41.0096 6.3302 41.1004 6.41871L44.3082 9.54304L43.5511 13.9569C43.5297 14.082 43.5811 14.2084 43.6838 14.2829C43.7864 14.3575 43.9225 14.3673 44.0348 14.3083L47.9997 12.2232L51.9645 14.3083C52.0768 14.3673 52.2129 14.3575 52.3156 14.2829C52.4182 14.2084 52.4697 14.082 52.4482 13.9569L51.6912 9.54304L54.8989 6.41871C54.9898 6.3302 55.0225 6.19778 54.9834 6.07711C54.9443 5.95644 54.8401 5.86844 54.7146 5.85009L50.2811 5.20207L48.2986 1.18571Z" stroke="#8F6C1A" stroke-opacity="0.8" stroke-width="0.666667" stroke-linecap="round" stroke-linejoin="round"/>
<path d="M67.9997 1.33325L70.0597 5.50659L74.6663 6.17992L71.333 9.42659L72.1197 14.0133L67.9997 11.8466L63.8797 14.0133L64.6663 9.42659L61.333 6.17992L65.9397 5.50659L67.9997 1.33325Z" fill="#FEC62E"/>
<path d="M68.2986 1.18571C68.2424 1.07194 68.1265 0.999919 67.9997 0.999919C67.8728 0.999919 67.7569 1.07194 67.7008 1.18571L65.7183 5.20207L61.2848 5.85009C61.1593 5.86844 61.0551 5.95644 61.0159 6.07711C60.9768 6.19778 61.0096 6.3302 61.1004 6.41871L64.3082 9.54304L63.5511 13.9569C63.5297 14.082 63.5811 14.2084 63.6838 14.2829C63.7864 14.3575 63.9225 14.3673 64.0348 14.3083L67.9997 12.2232L71.9645 14.3083C72.0768 14.3673 72.2129 14.3575 72.3156 14.2829C72.4182 14.2084 72.4697 14.082 72.4482 13.9569L71.6912 9.54304L74.8989 6.41871C74.9898 6.3302 75.0225 6.19778 74.9834 6.07711C74.9443 5.95644 74.8401 5.86844 74.7146 5.85009L70.2811 5.20207L68.2986 1.18571Z" stroke="#8F6C1A" stroke-opacity="0.8" stroke-width="0.666667" stroke-linecap="round" stroke-linejoin="round"/>
<path d="M87.9997 1.33325L90.0597 5.50659L94.6663 6.17992L91.333 9.42659L92.1197 14.0133L87.9997 11.8466L83.8797 14.0133L84.6663 9.42659L81.333 6.17992L85.9397 5.50659L87.9997 1.33325Z" fill="#FEC62E"/>
<path d="M88.2986 1.18571C88.2424 1.07194 88.1265 0.999919 87.9997 0.999919C87.8728 0.999919 87.7569 1.07194 87.7008 1.18571L85.7183 5.20207L81.2848 5.85009C81.1593 5.86844 81.0551 5.95644 81.0159 6.07711C80.9768 6.19778 81.0096 6.3302 81.1004 6.41871L84.3082 9.54304L83.5511 13.9569C83.5297 14.082 83.5811 14.2084 83.6838 14.2829C83.7864 14.3575 83.9225 14.3673 84.0348 14.3083L87.9997 12.2232L91.9645 14.3083C92.0768 14.3673 92.2129 14.3575 92.3156 14.2829C92.4182 14.2084 92.4697 14.082 92.4482 13.9569L91.6912 9.54304L94.8989 6.41871C94.9898 6.3302 95.0225 6.19778 94.9834 6.07711C94.9443 5.95644 94.8401 5.86844 94.7146 5.85009L90.2811 5.20207L88.2986 1.18571Z" stroke="#8F6C1A" stroke-opacity="0.8" stroke-width="0.666667" stroke-linecap="round" stroke-linejoin="round"/>
</svg>
